<?xml version="1.0" encoding="UTF-8"?>
<!DOCTYPE svg PUBLIC "-//W3C//DTD SVG 1.1//EN" "http://www.w3.org/Graphics/SVG/1.1/DTD/svg11.dtd">
<svg xmlns="http://www.w3.org/2000/svg" version="1.1" width="174px" height="133px" style="shape-rendering:geometricPrecision; text-rendering:geometricPrecision; image-rendering:optimizeQuality; fill-rule:evenodd; clip-rule:evenodd" xmlns:xlink="http://www.w3.org/1999/xlink">
<g><path style="opacity:1" fill="#fefffe" d="M -0.5,-0.5 C 57.5,-0.5 115.5,-0.5 173.5,-0.5C 173.5,43.8333 173.5,88.1667 173.5,132.5C 115.5,132.5 57.5,132.5 -0.5,132.5C -0.5,88.1667 -0.5,43.8333 -0.5,-0.5 Z M 0.5,0.5 C 57.8333,0.5 115.167,0.5 172.5,0.5C 172.5,44.1667 172.5,87.8333 172.5,131.5C 115.167,131.5 57.8333,131.5 0.5,131.5C 0.5,87.8333 0.5,44.1667 0.5,0.5 Z"/></g>
<g><path style="opacity:1" fill="#b3d9ed" d="M 122.5,22.5 C 121.833,24.5 121.167,26.5 120.5,28.5C 120.336,25.8127 120.503,23.146 121,20.5C 121.717,21.0442 122.217,21.7109 122.5,22.5 Z"/></g>
<g><path style="opacity:1" fill="#55a9d6" d="M 122.5,22.5 C 123.932,25.0967 126.099,26.7633 129,27.5C 129.127,28.7766 128.627,29.9433 127.5,31C 129.026,33.7882 128.192,35.6215 125,36.5C 124.529,33.4061 122.696,31.7394 119.5,31.5C 120.127,30.5832 120.461,29.5832 120.5,28.5C 121.167,26.5 121.833,24.5 122.5,22.5 Z"/></g>
<g><path style="opacity:1" fill="#21317b" d="M 91.5,28.5 C 93.5145,29.9238 95.8478,30.5905 98.5,30.5C 103.582,32.0426 107.582,35.0426 110.5,39.5C 110.427,41.0269 111.094,42.0269 112.5,42.5C 114.293,44.4261 115.293,46.7594 115.5,49.5C 115.5,53.5 115.5,57.5 115.5,61.5C 108.431,80.0702 96.4308,94.5702 79.5,105C 74.8174,107.617 69.8174,109.117 64.5,109.5C 63.448,109.649 62.448,109.483 61.5,109C 62.7375,108.768 63.7375,108.268 64.5,107.5C 74.2318,103.777 81.8985,97.4439 87.5,88.5C 89.5286,86.9793 90.3619,84.9793 90,82.5C 88.8236,84.1957 87.657,85.8624 86.5,87.5C 76.9689,99.1029 64.6356,105.77 49.5,107.5C 41.0789,105.667 39.2456,101.001 44,93.5C 46.3347,90.3347 48.8347,87.3347 51.5,84.5C 53.5995,83.4829 54.5995,82.1495 54.5,80.5C 52.812,81.5213 51.4787,82.8546 50.5,84.5C 44.2944,89.0259 39.6278,94.6926 36.5,101.5C 36.0826,104.159 35.0826,106.492 33.5,108.5C 25.5121,102.403 21.8454,94.2359 22.5,84C 23.4723,67.1992 32.139,57.0326 48.5,53.5C 52.0122,54.0545 55.0122,53.3878 57.5,51.5C 62.6339,34.2891 73.9672,26.6224 91.5,28.5 Z"/></g>
<g><path style="opacity:1" fill="#5c659d" d="M 91.5,28.5 C 94.1522,28.4095 96.4855,29.0762 98.5,30.5C 95.8478,30.5905 93.5145,29.9238 91.5,28.5 Z"/></g>
<g><path style="opacity:1" fill="#757eac" d="M 110.5,39.5 C 111.906,39.9731 112.573,40.9731 112.5,42.5C 111.094,42.0269 110.427,41.0269 110.5,39.5 Z"/></g>
<g><path style="opacity:1" fill="#80bfe1" d="M 122.5,53.5 C 122.672,52.5084 122.338,51.8417 121.5,51.5C 122.226,48.8206 123.059,46.154 124,43.5C 124.448,47.0708 123.948,50.4041 122.5,53.5 Z"/></g>
<g><path style="opacity:1" fill="#6972a5" d="M 57.5,51.5 C 55.0122,53.3878 52.0122,54.0545 48.5,53.5C 51.3896,52.7552 54.3896,52.0885 57.5,51.5 Z"/></g>
<g><path style="opacity:1" fill="#6972a5" d="M 115.5,49.5 C 117.961,53.5269 117.961,57.5269 115.5,61.5C 115.5,57.5 115.5,53.5 115.5,49.5 Z"/></g>
<g><path style="opacity:1" fill="#389dd1" d="M 121.5,51.5 C 122.338,51.8417 122.672,52.5084 122.5,53.5C 122.215,55.288 122.548,56.9547 123.5,58.5C 139.734,65.3397 145.567,77.3397 141,94.5C 136.949,104.109 129.782,109.775 119.5,111.5C 107.322,111.828 95.3217,111.495 83.5,110.5C 92.5485,102.951 100.382,94.2839 107,84.5C 112.929,73.8433 117.762,62.8433 121.5,51.5 Z"/></g>
<g><path style="opacity:1" fill="#b7bcd4" d="M 51.5,84.5 C 51.1667,84.5 50.8333,84.5 50.5,84.5C 51.4787,82.8546 52.812,81.5213 54.5,80.5C 54.5995,82.1495 53.5995,83.4829 51.5,84.5 Z"/></g>
<g><path style="opacity:1" fill="#cacee0" d="M 87.5,88.5 C 87.5,87.8333 87.1667,87.5 86.5,87.5C 87.657,85.8624 88.8236,84.1957 90,82.5C 90.3619,84.9793 89.5286,86.9793 87.5,88.5 Z"/></g>
<g><path style="opacity:1" fill="#6069a0" d="M 36.5,101.5 C 36.2935,105.587 37.6269,109.087 40.5,112C 37.6641,111.915 35.3307,110.749 33.5,108.5C 35.0826,106.492 36.0826,104.159 36.5,101.5 Z"/></g>
<g><path style="opacity:1" fill="#60689f" d="M 64.5,107.5 C 63.7375,108.268 62.7375,108.768 61.5,109C 62.448,109.483 63.448,109.649 64.5,109.5C 60.3101,111.45 55.9767,111.616 51.5,110C 55.8157,109.004 60.1491,108.17 64.5,107.5 Z"/></g>
<g><path style="opacity:1" fill="#6cb6dd" d="M 83.5,110.5 C 95.3217,111.495 107.322,111.828 119.5,111.5C 108.098,112.176 96.5981,112.843 85,113.5C 83.6012,112.773 82.1012,112.273 80.5,112C 81.2438,110.961 82.2438,110.461 83.5,110.5 Z"/></g>
</svg>
